# xmcd CD database file generated by Grip 3.3.1
# 
# Track frame offsets:
#       150
#       12634
#       27692
#       40315
#       55170
#       68062
#       85017
#       96595
#       108695
#       121900
#       131292
#       159662
#       175270
#       190885
#       204605
#       219867
#       234297
#       246625
# 
# Disc length: 3485 seconds
# 
# Revision: 1
# Processed by: cddbd v1.5.2PL0 Copyright (c) Steve Scherf et al.
# Submitted via: Grip 3.3.1
# 
DISCID=040d9b12
DTITLE=Various Artist - Best of Big Bands from the 40's [CD2)
DYEAR=1900
DGENRE=Jazz
TTITLE0=Glenn Miller - S.N.A.F.U Jump
TTITLE1=Billy Thornburn and His Music - Heaven can wait
TTITLE2=Johnny Desmont - This can't be love
TTITLE3=Geraldo and his orchestra - Lili Marlene
TTITLE4=Duke Ellington - Prelude
TTITLE5=Jimmy Dorsey and his orchestra - My prayer
TTITLE6=The Raoc Blue Rockets Dance Orchestra - Ma, I miss your apple pie
TTITLE7=Woody Herman - Woodchopper's ball
TTITLE8=Ella Fitzgerald and The Ink Spots - It's only a paper moon
TTITLE9=Count Basie and his orchestra - Mama don't want no peas an' rice an
TTITLE9=' cocoanut oil
TTITLE10=Carroll Gibbons and The Savoy Hotel Orpheans - The Ferryboat serena
TTITLE10=de
TTITLE11=Benny Goodman and his orchestra - He ain't got rhythm
TTITLE12=Bill Coleman - I double dare you
TTITLE13=Joe Loss and his band - Wish me luck (as you wave me goodbye)
TTITLE14=Tommy Dorsey - Marie
TTITLE15=The Glenn Miller Army Air Force Orchestra - Sun valley jump
TTITLE16=Benny Goodman and his orchestra - After you've gone
TTITLE17=Victor Silverster's Jive Band - Boston Bounce
EXTD=
EXTT0=
EXTT1=
EXTT2=
EXTT3=
EXTT4=
EXTT5=
EXTT6=
EXTT7=
EXTT8=
EXTT9=
EXTT10=
EXTT11=
EXTT12=
EXTT13=
EXTT14=
EXTT15=
EXTT16=
EXTT17=
PLAYORDER=
